<svg xmlns="http://www.w3.org/2000/svg" xmlns:xlink="http://www.w3.org/1999/xlink" width="181" height="180" viewBox="0 0 181 180"><defs><style>.a{fill:#41376c;stroke:#13093e;}.b{fill:#ffab40;}.c,.e{stroke:none;}.d{fill:none;}.e{fill:#707070;}.f{filter:url(#a);}</style><filter id="a" x="0" y="0" width="181" height="180" filterUnits="userSpaceOnUse"><feOffset dx="3" dy="3" input="SourceAlpha"/><feGaussianBlur stdDeviation="3" result="b"/><feFlood flood-color="#d5a25f"/><feComposite operator="in" in2="b"/><feComposite in="SourceGraphic"/></filter></defs><g transform="translate(-601 -716)"><g class="f" transform="matrix(1, 0, 0, 1, 601, 716)"><g class="a" transform="translate(6 6)"><rect class="c" width="163" height="162" rx="81"/><rect class="d" x="0.5" y="0.5" width="162" height="161" rx="80.5"/></g></g><g class="b" transform="translate(658 722)"><path class="c" d="M 47.29360961914062 53.50000762939453 L 13.70639038085938 53.50000762939453 C 11.00977993011475 53.50000762939453 8.588319778442383 52.10959625244141 7.229000091552734 49.78065872192383 C 5.869669914245605 47.45172882080078 5.849870204925537 44.65953826904297 7.176050186157227 42.31156921386719 L 23.96965980529785 12.57861709594727 C 25.31768989562988 10.19193744659424 27.75893974304199 8.767046928405762 30.50000953674316 8.767046928405762 C 33.24106979370117 8.767046928405762 35.68231964111328 10.19193744659424 37.03034973144531 12.57861709594727 L 53.82395935058594 42.31156921386719 C 55.15013122558594 44.65953826904297 55.13034057617188 47.45172882080078 53.77099990844727 49.78066635131836 C 52.41167831420898 52.10959625244141 49.99021911621094 53.50000762939453 47.29360961914062 53.50000762939453 Z"/><path class="e" d="M 30.5 9.267047882080078 C 27.94168090820312 9.267047882080078 25.66318130493164 10.59693908691406 24.40501022338867 12.82450866699219 L 7.611400604248047 42.55745697021484 C 6.373638153076172 44.74890899658203 6.392120361328125 47.35494613647461 7.660820007324219 49.52861785888672 C 8.929531097412109 51.70228576660156 11.18954849243164 53.00000762939453 13.70639038085938 53.00000762939453 L 47.29360961914062 53.00000762939453 C 49.81044769287109 53.00000762939453 52.07046890258789 51.70228576660156 53.33917999267578 49.52861785888672 C 54.60787963867188 47.35494613647461 54.62635803222656 44.74890899658203 53.38859939575195 42.55745697021484 L 36.59500122070312 12.82450866699219 C 35.33683013916016 10.59693908691406 33.05833053588867 9.267047882080078 30.5 9.267047882080078 M 30.5000057220459 8.267051696777344 C 33.2174072265625 8.267051696777344 35.93481063842773 9.622272491455078 37.4657096862793 12.33271789550781 L 54.25930786132812 42.06566619873047 C 57.27146148681641 47.39864730834961 53.41844940185547 54.00000762939453 47.29360961914062 54.00000762939453 L 13.70639038085938 54.00000762939453 C 7.581550598144531 54.00000762939453 3.728538513183594 47.39864730834961 6.740688323974609 42.06566619873047 L 23.5343017578125 12.33271789550781 C 25.06520080566406 9.622272491455078 27.7826042175293 8.267051696777344 30.5000057220459 8.267051696777344 Z"/></g><g class="b" transform="translate(608.217 833.928) rotate(-90)"><path class="c" d="M 47.29360580444336 53.50000381469727 L 13.70638656616211 53.49999618530273 C 11.00978660583496 53.49999618530273 8.588335990905762 52.10959625244141 7.229006290435791 49.78066635131836 C 5.86966609954834 47.45172500610352 5.849876403808594 44.6595344543457 7.176046371459961 42.31156539916992 L 23.96964645385742 12.57862567901611 C 25.31767654418945 10.19194507598877 27.75892639160156 8.767055511474609 30.49999618530273 8.767055511474609 C 33.24105453491211 8.767055511474609 35.68230438232422 10.19193553924561 37.03033447265625 12.57861518859863 L 53.82394790649414 42.31156539916992 C 55.15012741088867 44.6595344543457 55.13032531738281 47.45171356201172 53.7710075378418 49.78065490722656 C 52.41167449951172 52.10959625244141 49.99021530151367 53.50000381469727 47.29360580444336 53.50000381469727 Z"/><path class="e" d="M 30.49998664855957 9.267044067382812 C 27.94166564941406 9.267044067382812 25.66316604614258 10.59694671630859 24.40499496459961 12.82451629638672 L 7.611396789550781 42.55745697021484 C 6.373634338378906 44.74889373779297 6.392116546630859 47.35493469238281 7.660816192626953 49.52860641479492 C 8.929527282714844 51.70228576660156 11.18954467773438 52.99999618530273 13.70638656616211 52.99999618530273 L 47.29360580444336 52.99999618530273 C 49.8104362487793 52.99999618530273 52.07046508789062 51.70228576660156 53.33916473388672 49.52861404418945 C 54.60787582397461 47.35493469238281 54.62635803222656 44.74889373779297 53.38859558105469 42.55745697021484 L 36.59498596191406 12.82451629638672 C 35.33681488037109 10.59694671630859 33.05831527709961 9.267044067382812 30.49998664855957 9.267044067382812 M 30.49999046325684 8.267051696777344 C 33.21739196777344 8.267051696777344 35.93479537963867 9.622276306152344 37.4656982421875 12.33272552490234 L 54.25930786132812 42.06566619873047 C 57.27144622802734 47.39863586425781 53.4184455871582 53.99999618530273 47.29360580444336 53.99999618530273 L 13.70638656616211 53.99999618530273 C 7.581546783447266 53.99999618530273 3.728534698486328 47.39864349365234 6.740684509277344 42.06566619873047 L 23.53428649902344 12.33272552490234 C 25.065185546875 9.622276306152344 27.78258895874023 8.267051696777344 30.49999046325684 8.267051696777344 Z"/></g><g class="b" transform="translate(719 884) rotate(180)"><path class="c" d="M 47.29360198974609 53.50000381469727 L 13.70638275146484 53.50000381469727 C 11.0097827911377 53.50000381469727 8.588322639465332 52.10959625244141 7.229002475738525 49.78066635131836 C 5.869662284851074 47.45172500610352 5.849872589111328 44.6595344543457 7.176042556762695 42.31156539916992 L 23.96964263916016 12.57862567901611 C 25.31767272949219 10.19193553924561 27.7589225769043 8.767055511474609 30.49999237060547 8.767055511474609 C 33.24105072021484 8.767055511474609 35.68230056762695 10.19193553924561 37.03033065795898 12.57861518859863 L 53.82394409179688 42.31156539916992 C 55.15012359619141 44.6595344543457 55.13032150268555 47.45171356201172 53.77100372314453 49.78065490722656 C 52.41167068481445 52.10959625244141 49.99021148681641 53.50000381469727 47.29360198974609 53.50000381469727 Z"/><path class="e" d="M 30.49998474121094 9.267044067382812 C 27.94165420532227 9.267044067382812 25.66315460205078 10.59694671630859 24.40498352050781 12.82451629638672 L 7.611392974853516 42.55745697021484 C 6.373634338378906 44.74889373779297 6.392112731933594 47.35493469238281 7.660812377929688 49.52860641479492 C 8.929523468017578 51.70227432250977 11.18954467773438 52.99999618530273 13.70638275146484 52.99999618530273 L 47.29359436035156 52.99999618530273 C 49.81043243408203 52.99999618530273 52.07046508789062 51.70227432250977 53.33916473388672 49.52860641479492 C 54.60787582397461 47.35493469238281 54.6263427734375 44.74889373779297 53.38858413696289 42.55745697021484 L 36.59498596191406 12.82450485229492 C 35.33681488037109 10.5969352722168 33.05830383300781 9.267044067382812 30.49998474121094 9.267044067382812 M 30.49998474121094 8.267047882080078 C 33.21738815307617 8.267047882080078 35.93479156494141 9.622268676757812 37.46569442749023 12.33271408081055 L 54.25929260253906 42.06566619873047 C 57.27144622802734 47.39863586425781 53.4184455871582 53.99999618530273 47.29359436035156 53.99999618530273 L 13.70638275146484 53.99999618530273 C 7.581554412841797 53.99999618530273 3.728534698486328 47.39864349365234 6.740684509277344 42.06566619873047 L 23.53427505493164 12.33272552490234 C 25.0651741027832 9.622276306152344 27.7825813293457 8.267047882080078 30.49998474121094 8.267047882080078 Z"/></g><g class="b" transform="translate(768.326 772.746) rotate(90)"><path class="c" d="M 47.29360580444336 53.50000381469727 L 13.70638656616211 53.49999618530273 C 11.00978660583496 53.49999618530273 8.588335990905762 52.10959625244141 7.229006290435791 49.78066635131836 C 5.86966609954834 47.45172500610352 5.849876403808594 44.6595344543457 7.176046371459961 42.31156539916992 L 23.96964645385742 12.57862567901611 C 25.31767654418945 10.19194507598877 27.75892639160156 8.767055511474609 30.49999618530273 8.767055511474609 C 33.24105453491211 8.767055511474609 35.68230438232422 10.19193553924561 37.03033447265625 12.57861518859863 L 53.82394790649414 42.31156539916992 C 55.15012741088867 44.6595344543457 55.13032531738281 47.45171356201172 53.7710075378418 49.78065490722656 C 52.41167449951172 52.10959625244141 49.99021530151367 53.50000381469727 47.29360580444336 53.50000381469727 Z"/><path class="e" d="M 30.49998664855957 9.267044067382812 C 27.94166564941406 9.267044067382812 25.66316604614258 10.59694671630859 24.40499496459961 12.82451629638672 L 7.611396789550781 42.55745697021484 C 6.373634338378906 44.74889373779297 6.392116546630859 47.35493469238281 7.660816192626953 49.52860641479492 C 8.929527282714844 51.70228576660156 11.18954467773438 52.99999618530273 13.70638656616211 52.99999618530273 L 47.29360580444336 52.99999618530273 C 49.8104362487793 52.99999618530273 52.07046508789062 51.70228576660156 53.33916473388672 49.52861404418945 C 54.60787582397461 47.35493469238281 54.62635803222656 44.74889373779297 53.38859558105469 42.55745697021484 L 36.59498596191406 12.82451629638672 C 35.33681488037109 10.59694671630859 33.05831527709961 9.267044067382812 30.49998664855957 9.267044067382812 M 30.49999046325684 8.267051696777344 C 33.21739196777344 8.267051696777344 35.93479537963867 9.622276306152344 37.4656982421875 12.33272552490234 L 54.25930786132812 42.06566619873047 C 57.27144622802734 47.39863586425781 53.4184455871582 53.99999618530273 47.29360580444336 53.99999618530273 L 13.70638656616211 53.99999618530273 C 7.581546783447266 53.99999618530273 3.728534698486328 47.39864349365234 6.740684509277344 42.06566619873047 L 23.53428649902344 12.33272552490234 C 25.065185546875 9.622276306152344 27.78258895874023 8.267051696777344 30.49999046325684 8.267051696777344 Z"/></g></g></svg>